<svg width="72" height="72" viewBox="0 0 72 72" fill="none" xmlns="http://www.w3.org/2000/svg"><g filter="url(#awsmv0w2x)"><path d="m23.25 35.44 15.37-20.17a1.63 1.63 0 0 1 2.55-.06l17.36 20.52c.65.76.47 1.9-.37 2.44l-9.84 6.2c-.6.37-1.38.32-1.92-.14l-10.81-9.08a1.63 1.63 0 0 0-1.6-.3l-8.9 3.13a1.63 1.63 0 0 1-1.84-2.54Z" stroke="#2962FF" stroke-width="2"/></g><g filter="url(#bwsmv0w2x)"><path d="m22.2 46.3-8.28 11.8a1.63 1.63 0 0 0 1.34 2.57h49.18c1.33 0 2.1-1.49 1.34-2.57L57.5 46.3" stroke="#2962FF" stroke-width="2"/></g><path d="M39.97 12.36a1 1 0 0 0-1.55.04L18.23 38.52a1 1 0 0 0 1.12 1.56l14.61-5.04 12.2 10.1a1 1 0 0 0 1.16.07l12.62-7.84a1 1 0 0 0 .23-1.5l-20.2-23.5ZM21.86 37.1l17.4-22.5 18.63 21.69-11.02 6.84-12.06-9.99a1 1 0 0 0-.97-.17L21.86 37.1Zm-1.13 8-10.1 14.36a1 1 0 0 0 .82 1.58h55.53a1 1 0 0 0 .82-1.58L57.7 45.1l-1.63 1.15 8.99 12.8H13.37l9-12.8-1.64-1.15Z" fill="#2962FF"/><g filter="url(#cwsmv0w2x)"><path d="M24.22 30.59 39.6 10.42a1.63 1.63 0 0 1 2.55-.07L59.5 30.87c.65.76.47 1.91-.37 2.44l-9.84 6.2c-.6.38-1.38.32-1.92-.13l-10.81-9.09a1.63 1.63 0 0 0-1.6-.29l-8.9 3.12a1.63 1.63 0 0 1-1.84-2.53Z" stroke="#D500F9" stroke-width="2"/></g><g filter="url(#dwsmv0w2x)"><path d="m23.17 41.45-8.28 11.8a1.63 1.63 0 0 0 1.34 2.57h49.18c1.33 0 2.1-1.5 1.34-2.57l-8.28-11.8" stroke="#D500F9" stroke-width="2"/></g><path d="M40.95 7.5a1 1 0 0 0-1.55.05L19.2 33.67a1 1 0 0 0 1.12 1.56l14.61-5.04 12.2 10.09a1 1 0 0 0 1.16.08l12.62-7.84a1 1 0 0 0 .23-1.5L40.94 7.5ZM22.83 32.25l17.4-22.5 18.63 21.7-11.02 6.84-12.06-10a1 1 0 0 0-.97-.17l-11.98 4.13Zm-1.13 8L11.6 54.6a1 1 0 0 0 .82 1.57h55.53a1 1 0 0 0 .82-1.57l-10.1-14.37-1.63 1.15 8.99 12.79H14.34l9-12.8-1.64-1.14Z" fill="#D500F9"/><g filter="url(#ewsmv0w2x)"><path d="m15.49 33.5 15.36-20.17a1.63 1.63 0 0 1 2.55-.07l17.37 20.52c.64.76.46 1.91-.38 2.44l-9.83 6.2c-.6.38-1.38.33-1.93-.13l-10.8-9.08a1.63 1.63 0 0 0-1.6-.3l-8.9 3.12a1.63 1.63 0 0 1-1.84-2.53Z" stroke="#2BD9BC" stroke-width="2"/></g><g filter="url(#fwsmv0w2x)"><path d="M14.44 44.37 6.16 56.16a1.63 1.63 0 0 0 1.34 2.57h49.18c1.32 0 2.1-1.49 1.33-2.57l-8.27-11.8" stroke="#2BD9BC" stroke-width="2"/></g><path d="M32.2 10.42a1 1 0 0 0-1.54.04L10.46 36.6a1 1 0 0 0 1.12 1.55L26.2 33.1l12.18 10.1a1 1 0 0 0 1.17.07l12.62-7.84a1 1 0 0 0 .23-1.5l-20.2-23.5ZM14.1 35.16l17.39-22.5 18.63 21.7-11.01 6.83-12.07-9.99a1 1 0 0 0-.97-.17L14.1 35.16Zm-1.14 8L2.86 57.51a1 1 0 0 0 .82 1.58h55.54a1 1 0 0 0 .82-1.58l-10.1-14.37-1.64 1.15 9 12.8H5.6l9-12.8-1.64-1.15Z" fill="#2BD9BC"/><defs><filter id="awsmv0w2x" x="13.91" y="5.63" width="54.02" height="47.99" filterUnits="userSpaceOnUse" color-interpolation-filters="sRGB"><feGaussianBlur stdDeviation="4"/></filter><filter id="bwsmv0w2x" x="4.62" y="37.73" width="70.46" height="31.94" filterUnits="userSpaceOnUse" color-interpolation-filters="sRGB"><feGaussianBlur stdDeviation="4"/></filter><filter id="cwsmv0w2x" x="14.88" y=".77" width="54.02" height="47.99" filterUnits="userSpaceOnUse" color-interpolation-filters="sRGB"><feGaussianBlur stdDeviation="4"/></filter><filter id="dwsmv0w2x" x="5.59" y="32.88" width="70.46" height="31.94" filterUnits="userSpaceOnUse" color-interpolation-filters="sRGB"><feGaussianBlur stdDeviation="4"/></filter><filter id="ewsmv0w2x" x="6.14" y="3.68" width="54.02" height="47.99" filterUnits="userSpaceOnUse" color-interpolation-filters="sRGB"><feGaussianBlur stdDeviation="4"/></filter><filter id="fwsmv0w2x" x="-3.14" y="35.79" width="70.46" height="31.94" filterUnits="userSpaceOnUse" color-interpolation-filters="sRGB"><feGaussianBlur stdDeviation="4"/></filter></defs></svg>