<svg width="50" height="49" viewBox="0 0 50 49" fill="none" xmlns="http://www.w3.org/2000/svg"><path d="m26 7.49 5.5 9.43.16.29.32.07 10.67 2.3-7.27 8.15-.22.25.03.32 1.1 10.87-9.99-4.4-.3-.14-.3.13-10 4.4 1.1-10.86.04-.32-.22-.25-7.27-8.14 10.67-2.31.32-.07.17-.29L26 7.5Z" stroke="#2962FF" stroke-width="1.5"/><g filter="url(#a1kkfixtr)"><path d="m26 7.49 5.5 9.43.16.29.32.07 10.67 2.3-7.27 8.15-.22.25.03.32 1.1 10.87-9.99-4.4-.3-.14-.3.13-10 4.4 1.1-10.86.04-.32-.22-.25-7.27-8.14 10.67-2.31.32-.07.17-.29L26 7.5Z" stroke="#2962FF" stroke-width="1.5"/></g><path d="m24 6.49 5.5 9.43.16.29.32.07 10.67 2.3-7.27 8.15-.22.25.03.32 1.1 10.87-9.99-4.4-.3-.14-.3.13-10 4.4 1.1-10.86.04-.32-.22-.25-7.27-8.14 10.67-2.31.32-.07.17-.29L24 6.5Z" stroke="#D500F9" stroke-width="1.5"/><g filter="url(#b1kkfixtr)"><path d="m24 6.49 5.5 9.43.16.29.32.07 10.67 2.3-7.27 8.15-.22.25.03.32 1.1 10.87-9.99-4.4-.3-.14-.3.13-10 4.4 1.1-10.86.04-.32-.22-.25-7.27-8.14 10.67-2.31.32-.07.17-.29L24 6.5Z" stroke="#D500F9" stroke-width="1.5"/></g><path d="m24 10.49 5.5 9.43.16.29.32.07 10.67 2.3-7.27 8.15-.22.25.03.32 1.1 10.87-9.99-4.4-.3-.14-.3.13-10 4.4 1.1-10.86.04-.32-.22-.25-7.27-8.14 10.67-2.31.32-.07.17-.29L24 10.5Z" stroke="#2BD9BC" stroke-width="1.5"/><g filter="url(#c1kkfixtr)"><path d="m24 10.49 5.5 9.43.16.29.32.07 10.67 2.3-7.27 8.15-.22.25.03.32 1.1 10.87-9.99-4.4-.3-.14-.3.13-10 4.4 1.1-10.86.04-.32-.22-.25-7.27-8.14 10.67-2.31.32-.07.17-.29L24 10.5Z" stroke="#2BD9BC" stroke-width="1.5"/></g><defs><filter id="a1kkfixtr" x="2.93" y="1" width="46.14" height="44.37" filterUnits="userSpaceOnUse" color-interpolation-filters="sRGB"><feGaussianBlur stdDeviation="2.5"/></filter><filter id="b1kkfixtr" x=".93" y="0" width="46.14" height="44.37" filterUnits="userSpaceOnUse" color-interpolation-filters="sRGB"><feGaussianBlur stdDeviation="2.5"/></filter><filter id="c1kkfixtr" x=".93" y="4" width="46.14" height="44.37" filterUnits="userSpaceOnUse" color-interpolation-filters="sRGB"><feGaussianBlur stdDeviation="2.5"/></filter></defs></svg>