<svg width="72" height="72" viewBox="0 0 72 72" fill="none" xmlns="http://www.w3.org/2000/svg"><path d="m38 5.99 9.16 15.72.22.38.43.1 17.78 3.84L53.47 39.6l-.3.33.05.44 1.83 18.1-16.65-7.34-.4-.17-.4.17-16.65 7.34 1.83-18.1.04-.44-.29-.33-12.12-13.57 17.78-3.85.43-.09.22-.38L38 5.99Z" stroke="#2962FF" stroke-width="2"/><g filter="url(#abpzoxnng)"><path d="m38 5.99 9.16 15.72.22.38.43.1 17.78 3.84L53.47 39.6l-.3.33.05.44 1.83 18.1-16.65-7.34-.4-.17-.4.17-16.65 7.34 1.83-18.1.04-.44-.29-.33-12.12-13.57 17.78-3.85.43-.09.22-.38L38 5.99Z" stroke="#2962FF" stroke-width="2"/></g><path d="m34 3.99 9.16 15.72.22.38.43.1 17.78 3.84L49.47 37.6l-.3.33.05.44 1.83 18.1-16.65-7.34-.4-.17-.4.17-16.65 7.34 1.83-18.1.04-.44-.29-.33L6.41 24.03l17.78-3.85.43-.09.22-.38L34 3.99Z" stroke="#D500F9" stroke-width="2"/><g filter="url(#bbpzoxnng)"><path d="m34 3.99 9.16 15.72.22.38.43.1 17.78 3.84L49.47 37.6l-.3.33.05.44 1.83 18.1-16.65-7.34-.4-.17-.4.17-16.65 7.34 1.83-18.1.04-.44-.29-.33L6.41 24.03l17.78-3.85.43-.09.22-.38L34 3.99Z" stroke="#D500F9" stroke-width="2"/></g><path d="m34 9.99 9.16 15.72.22.38.43.1 17.78 3.84L49.47 43.6l-.3.33.05.44 1.83 18.1-16.65-7.34-.4-.17-.4.17-16.65 7.34 1.83-18.1.04-.44-.29-.33L6.41 30.03l17.78-3.85.43-.09.22-.38L34 9.99Z" stroke="#2BD9BC" stroke-width="2"/><g filter="url(#cbpzoxnng)"><path d="m34 9.99 9.16 15.72.22.38.43.1 17.78 3.84L49.47 43.6l-.3.33.05.44 1.83 18.1-16.65-7.34-.4-.17-.4.17-16.65 7.34 1.83-18.1.04-.44-.29-.33L6.41 30.03l17.78-3.85.43-.09.22-.38L34 9.99Z" stroke="#2BD9BC" stroke-width="2"/></g><defs><filter id="abpzoxnng" x="-1.48" y="-6" width="78.97" height="76.08" color-interpolation-filters="sRGB"><feGaussianBlur stdDeviation="5"/></filter><filter id="bbpzoxnng" x="-5.48" y="-8" width="78.97" height="76.08" color-interpolation-filters="sRGB"><feGaussianBlur stdDeviation="5"/></filter><filter id="cbpzoxnng" x="-5.48" y="-2" width="78.97" height="76.08" color-interpolation-filters="sRGB"><feGaussianBlur stdDeviation="5"/></filter></defs></svg>