<svg width="44" height="44" viewBox="0 0 44 44" fill="none" xmlns="http://www.w3.org/2000/svg"><g filter="url(#anymvhmj3)"><path d="m14.65 21.67 9.1-12.82c.41-.57 1.25-.59 1.68-.04L35.76 21.9c.38.48.27 1.17-.23 1.51l-5.82 3.94c-.4.27-.93.23-1.3-.1l-6.34-5.71c-.3-.27-.7-.34-1.07-.2l-5.12 1.91a1.05 1.05 0 0 1-1.23-1.58Z" stroke="#2962FF" stroke-width="1.5"/></g><g filter="url(#bnymvhmj3)"><path d="m13.8 28.64-5.06 7.58c-.47.7.03 1.63.87 1.63h29.91c.84 0 1.34-.93.88-1.63l-5.07-7.58" stroke="#2962FF" stroke-width="1.5"/></g><path d="M24.65 6.92a.62.62 0 0 0-1 .02L11.75 23.7a.62.62 0 0 0 .73.94l8.57-3.22 7.15 6.45c.22.2.53.21.77.05l7.43-5.02a.62.62 0 0 0 .14-.9L24.64 6.92Zm-10.7 15.83 10.24-14.4 10.96 13.88-6.48 4.38-7.07-6.37a.62.62 0 0 0-.63-.12l-7.02 2.63Zm-1.07 5.14-6.16 9.2a.62.62 0 0 0 .52.98h33.84a.62.62 0 0 0 .51-.97l-6.15-9.21-1.03.7 5.5 8.23H8.41l5.5-8.24-1.03-.7Z" fill="#2962FF"/><g filter="url(#cnymvhmj3)"><path d="m15.28 18.56 9.1-12.82c.4-.57 1.24-.59 1.67-.04l10.33 13.09c.38.47.27 1.17-.23 1.51l-5.82 3.94c-.4.27-.93.23-1.29-.1l-6.35-5.72c-.3-.26-.7-.34-1.07-.2l-5.12 1.92a1.05 1.05 0 0 1-1.22-1.58Z" stroke="#D500F9" stroke-width="1.5"/></g><g filter="url(#dnymvhmj3)"><path d="m14.42 25.53-5.06 7.58c-.47.7.03 1.63.87 1.63h29.92c.83 0 1.33-.93.87-1.63l-5.07-7.58" stroke="#D500F9" stroke-width="1.5"/></g><path d="M25.22 3.85a.55.55 0 0 0-.89.02l-11.9 16.75a.55.55 0 0 0 .65.83l8.6-3.23 7.2 6.48c.18.17.46.19.67.04L37 19.72a.55.55 0 0 0 .12-.8L25.21 3.85ZM14.38 19.78 24.8 5.11l11.07 14.03-6.58 4.44-7.11-6.4a.55.55 0 0 0-.57-.11l-7.23 2.71Zm-.82 5.04-6.16 9.2a.55.55 0 0 0 .46.86H41.7a.55.55 0 0 0 .46-.86L36 24.82l-.92.61 5.57 8.35H8.9l5.57-8.35-.91-.61Z" fill="#D500F9"/><g filter="url(#enymvhmj3)"><path d="m9.68 20.42 9.1-12.81c.4-.57 1.24-.6 1.67-.04l10.33 13.08c.38.48.27 1.18-.23 1.52l-5.82 3.93c-.4.27-.93.23-1.3-.09L17.1 20.3c-.3-.26-.7-.34-1.07-.2L10.9 22a1.05 1.05 0 0 1-1.22-1.59Z" stroke="#2BD9BC" stroke-width="1.5"/></g><g filter="url(#fnymvhmj3)"><path d="m8.82 27.4-5.06 7.58c-.47.7.03 1.63.87 1.63h29.92c.83 0 1.33-.93.87-1.63l-5.07-7.58" stroke="#2BD9BC" stroke-width="1.5"/></g><path d="M19.67 5.68a.62.62 0 0 0-1 .02L6.77 22.44a.62.62 0 0 0 .73.95l8.57-3.22 7.15 6.45c.22.19.53.2.77.05l7.43-5.02a.62.62 0 0 0 .14-.9L19.66 5.67ZM8.97 21.5 19.21 7.1l10.96 13.89-6.47 4.38-7.08-6.38a.62.62 0 0 0-.63-.12l-7.02 2.64ZM7.9 26.65l-6.15 9.2a.62.62 0 0 0 .51.97H36.1a.62.62 0 0 0 .52-.96l-6.16-9.21-1.03.69 5.5 8.24H3.43l5.5-8.24-1.03-.7Z" fill="#2BD9BC"/><defs><filter id="anymvhmj3" x="8.7" y="2.66" width="33.04" height="30.61" filterUnits="userSpaceOnUse" color-interpolation-filters="sRGB"><feGaussianBlur stdDeviation="2.5"/></filter><filter id="bnymvhmj3" x="2.81" y="23.23" width="43.52" height="20.38" filterUnits="userSpaceOnUse" color-interpolation-filters="sRGB"><feGaussianBlur stdDeviation="2.5"/></filter><filter id="cnymvhmj3" x="9.32" y="-.45" width="33.04" height="30.61" filterUnits="userSpaceOnUse" color-interpolation-filters="sRGB"><feGaussianBlur stdDeviation="2.5"/></filter><filter id="dnymvhmj3" x="3.43" y="20.12" width="43.52" height="20.38" filterUnits="userSpaceOnUse" color-interpolation-filters="sRGB"><feGaussianBlur stdDeviation="2.5"/></filter><filter id="enymvhmj3" x="3.72" y="1.42" width="33.04" height="30.61" filterUnits="userSpaceOnUse" color-interpolation-filters="sRGB"><feGaussianBlur stdDeviation="2.5"/></filter><filter id="fnymvhmj3" x="-2.17" y="21.98" width="43.52" height="20.38" filterUnits="userSpaceOnUse" color-interpolation-filters="sRGB"><feGaussianBlur stdDeviation="2.5"/></filter></defs></svg>