<svg width="48" height="48" viewBox="0 0 48 48" xmlns="http://www.w3.org/2000/svg"><rect width="48" height="48" rx="6" fill="url(#auoebj330)"/><path d="M8.1 22h3.33c.7 0 1.31-.11 1.82-.34.5-.22.89-.55 1.16-.97.27-.41.4-.91.4-1.49v-.01a2.31 2.31 0 0 0-1.07-1.98 2.55 2.55 0 0 0-1.16-.38v-.12c.34-.06.63-.18.9-.38a2.19 2.19 0 0 0 .86-1.73v-.01c0-.5-.12-.94-.36-1.3a2.3 2.3 0 0 0-1.04-.85c-.44-.2-.98-.3-1.6-.3H8.1v1.36h2.8c.54 0 .96.13 1.25.37.3.25.45.59.45 1.03v.01c0 .45-.17.79-.5 1.03-.32.23-.8.35-1.42.35H8.1v1.25h2.86c.45 0 .82.06 1.13.17.31.12.54.29.7.52.15.22.23.5.23.84v.01c0 .5-.17.89-.5 1.16-.34.26-.84.4-1.49.4H8.1V22Zm-.88 0h1.76v-9.86H7.22V22Zm9.37 0h6.39v-1.48h-4.62v-2.83h4.36v-1.4h-4.36v-2.67h4.62v-1.48h-6.39V22Zm11.84.25a5 5 0 0 0 2.05-.39 3.01 3.01 0 0 0 1.33-1.08c.32-.46.47-1.01.47-1.65 0-.5-.1-.94-.3-1.3-.2-.35-.52-.65-.95-.9-.44-.24-1-.43-1.7-.58l-1.05-.22c-.41-.1-.75-.2-1-.32a1.4 1.4 0 0 1-.56-.46 1.08 1.08 0 0 1-.18-.62c0-.29.08-.53.24-.73.16-.2.39-.35.67-.46.28-.12.6-.17.96-.17.38 0 .71.05 1 .17.28.11.5.27.67.46.18.2.28.42.32.68l.02.08h1.68v-.09c-.04-.53-.22-1-.52-1.42a3.1 3.1 0 0 0-1.26-1 4.48 4.48 0 0 0-1.9-.36c-.7 0-1.33.13-1.89.38-.54.24-.97.59-1.29 1.03-.3.44-.46.95-.46 1.54v.01c0 .49.1.92.3 1.3.2.37.52.68.94.94.43.26.98.46 1.65.6l1.06.22c.64.13 1.1.31 1.37.54.28.23.42.51.42.87 0 .29-.09.54-.26.76-.17.21-.41.38-.72.5a3.32 3.32 0 0 1-2.16.01 2.01 2.01 0 0 1-.78-.48c-.19-.2-.3-.44-.33-.72v-.07h-1.71v.1c.05.56.23 1.06.55 1.48.33.42.77.75 1.33 1 .56.23 1.23.35 2 .35Zm8.14-.25h1.76v-8.38h3.03v-1.48h-7.83v1.48h3.04V22ZM10.52 36h4.9v-.87h-3.8l.24.16v-.44l-.24.44 1.94-2.07c.45-.48.8-.89 1.05-1.22.25-.33.43-.63.53-.9.1-.28.15-.56.15-.85v-.01c0-.42-.1-.8-.31-1.12-.2-.33-.48-.58-.83-.77a2.47 2.47 0 0 0-1.2-.28c-.48 0-.9.1-1.28.3a2.25 2.25 0 0 0-1.2 2.06l.93.01v-.01c0-.3.06-.57.18-.8.13-.22.3-.4.53-.53.22-.13.48-.19.78-.19.3 0 .55.06.76.19.2.12.37.3.48.5.11.22.17.47.17.74v.01c0 .23-.04.43-.11.63-.07.19-.2.4-.38.63-.18.23-.43.53-.75.89l-2.54 2.83V36Zm9.78.18c.57 0 1.06-.16 1.47-.5.4-.32.72-.79.94-1.4.22-.6.33-1.32.33-2.15v-.01c0-.83-.11-1.55-.33-2.16a3.1 3.1 0 0 0-.94-1.4c-.41-.33-.9-.5-1.47-.5-.58 0-1.07.17-1.48.5-.4.33-.71.8-.93 1.4-.22.6-.33 1.33-.33 2.16 0 .84.11 1.56.33 2.17.22.6.53 1.07.93 1.4.41.33.9.5 1.48.5Zm0-.84a1.3 1.3 0 0 1-.95-.4 2.55 2.55 0 0 1-.6-1.1 6.15 6.15 0 0 1-.22-1.71v-.01c0-.66.07-1.23.21-1.7.14-.49.34-.85.6-1.11.27-.26.59-.4.96-.4s.69.14.95.4.46.62.6 1.1c.15.48.22 1.05.22 1.7v.02a6 6 0 0 1-.22 1.7c-.14.49-.34.86-.6 1.12-.26.26-.58.39-.95.39Zm5.01.66h4.9v-.87h-3.8l.24.16v-.44l-.24.44 1.94-2.07c.45-.48.8-.89 1.06-1.22.25-.33.42-.63.52-.9.1-.28.15-.56.15-.85v-.01c0-.42-.1-.8-.3-1.12-.21-.33-.49-.58-.84-.77a2.47 2.47 0 0 0-1.2-.28c-.47 0-.9.1-1.28.3a2.25 2.25 0 0 0-1.2 2.06l.93.01v-.01c0-.3.07-.57.19-.8.12-.22.3-.4.52-.53.22-.13.48-.19.78-.19.3 0 .55.06.76.19.21.12.37.3.48.5.12.22.17.47.17.74v.01c0 .23-.03.43-.1.63-.08.19-.2.4-.39.63-.18.23-.43.53-.75.89l-2.54 2.83V36Zm7.4 0h4.9v-.87h-3.8l.24.16v-.44l-.24.44 1.93-2.07c.46-.48.81-.89 1.06-1.22.25-.33.43-.63.53-.9.1-.28.15-.56.15-.85v-.01c0-.42-.1-.8-.31-1.12-.2-.33-.48-.58-.84-.77a2.47 2.47 0 0 0-1.19-.28c-.48 0-.9.1-1.28.3a2.25 2.25 0 0 0-1.2 2.06l.93.01v-.01c0-.3.06-.57.18-.8.13-.22.3-.4.52-.53.23-.13.5-.19.79-.19.3 0 .54.06.76.19.2.12.37.3.48.5.11.22.17.47.17.74v.01c0 .23-.04.43-.11.63-.07.19-.2.4-.38.63-.18.23-.43.53-.76.89l-2.53 2.83V36Z"/><defs><linearGradient id="auoebj330" x1="0" y1="24" x2="48" y2="24" gradientUnits="userSpaceOnUse"><stop stop-color="#FCDB67"/><stop offset=".31" stop-color="#FCFE9F"/><stop offset=".73" stop-color="#F5F87E"/><stop offset="1" stop-color="#EAC690"/></linearGradient></defs></svg>