<svg width="42" height="42" viewBox="0 0 42 42" fill="none" xmlns="http://www.w3.org/2000/svg"><g clip-path="url(#af5fcsel3)"><rect width="42" height="42" rx="6" fill="#000"/><path id="bf5fcsel31" opacity=".2" d="M-23.82 43.62c33.18-4.36 66.67 4.74 79.26 9.83l-3.92-38.77C27.66-1.64-11.46-.59-28.03 1.98l4.21 41.64Z" stroke="url(#bf5fcsel3)"/><use href="#bf5fcsel31" stroke-width="4"/><use href="#bf5fcsel31" stroke-width="2"/><use href="#bf5fcsel31" stroke-width="3"/><path id="bf5fcsel32" opacity=".2" d="M-31.65 36.52c33.2-4.25 66.54 3.47 79.07 7.86l-2.09-20.6C21.68 9.55-17.4 10.92-33.99 13.39l2.34 23.14Z" stroke="url(#ff5fcsel3)"/><use href="#bf5fcsel32" stroke-width="4"/><use href="#bf5fcsel32" stroke-width="2"/><use href="#bf5fcsel32" stroke-width="3"/><path d="M7.09 20v-1.2h2.56c.57 0 1-.11 1.3-.34.3-.24.44-.57.44-1.01v-.02c0-.29-.07-.53-.2-.73-.14-.2-.34-.35-.61-.45-.27-.1-.6-.15-1-.15h-2.5V15h2.27c.54 0 .96-.1 1.24-.3.29-.21.43-.51.43-.9v-.01c0-.39-.13-.69-.39-.9a1.66 1.66 0 0 0-1.09-.32H7.1v-1.2h2.83c.55 0 1.02.09 1.4.26.4.17.7.42.91.74.21.32.32.7.32 1.15a1.92 1.92 0 0 1-.76 1.5 1.7 1.7 0 0 1-.78.35v.1c.39.04.73.16 1.02.34a2.02 2.02 0 0 1 .94 1.73v.01c0 .5-.12.94-.36 1.3-.24.38-.58.66-1.02.86-.44.2-.97.3-1.59.3H7.1Zm-.78 0v-8.63h1.55V20H6.3Zm8.2 0v-8.63h5.6v1.3h-4.05V15h3.82v1.22h-3.82v2.47h4.04V20h-5.58Zm10.37.22a4.5 4.5 0 0 1-1.75-.31c-.49-.21-.87-.5-1.16-.87-.28-.37-.44-.8-.48-1.3v-.08h1.5v.06c.02.24.12.45.29.63.17.18.4.32.68.42a2.9 2.9 0 0 0 1.89 0c.27-.11.48-.26.63-.45.15-.2.22-.41.22-.66a.93.93 0 0 0-.36-.76 2.9 2.9 0 0 0-1.2-.48l-.93-.2a4.73 4.73 0 0 1-1.44-.51c-.37-.23-.65-.5-.83-.84-.17-.32-.26-.7-.26-1.13 0-.52.14-.97.4-1.35.28-.39.66-.7 1.14-.9a3.96 3.96 0 0 1 1.65-.34c.64 0 1.2.11 1.66.33.47.2.83.5 1.1.86.27.37.42.79.45 1.25v.08h-1.46l-.02-.08a1.13 1.13 0 0 0-.28-.59 1.5 1.5 0 0 0-.59-.4c-.25-.1-.54-.15-.87-.15-.31 0-.6.05-.84.15-.25.1-.44.23-.59.4a.99.99 0 0 0-.2.64c0 .2.05.39.15.54.1.16.27.29.49.4.22.11.51.2.87.28l.93.2c.6.13 1.1.3 1.48.5.38.22.65.48.83.8.18.3.27.68.27 1.12 0 .57-.14 1.05-.41 1.46-.28.4-.66.72-1.17.94-.5.22-1.1.34-1.79.34ZM32 20v-7.33h-2.66v-1.3h6.85v1.3h-2.65V20H32ZM9.2 32v-.58l2.22-2.48c.29-.32.5-.58.66-.78.16-.2.27-.39.34-.55.06-.17.1-.36.1-.55v-.01c0-.24-.06-.45-.16-.64a1.1 1.1 0 0 0-.42-.45c-.18-.1-.4-.16-.66-.16s-.49.05-.69.17c-.2.1-.34.26-.45.46-.11.2-.16.43-.16.7h-.82a1.97 1.97 0 0 1 1.05-1.8c.33-.18.7-.27 1.12-.27.4 0 .74.08 1.05.25.3.16.55.39.73.67.18.29.27.61.27.98 0 .26-.04.51-.13.75s-.24.5-.46.8c-.22.28-.53.64-.93 1.06l-1.7 1.81.22-.39v.4l-.21-.15h3.32V32H9.2Zm8.56.16c-.5 0-.93-.14-1.29-.43-.35-.29-.62-.7-.82-1.23a5.6 5.6 0 0 1-.28-1.89c0-.73.1-1.36.28-1.9.2-.52.47-.93.82-1.22.36-.29.79-.43 1.29-.43s.93.14 1.29.43c.35.29.63.7.82 1.23.2.53.3 1.16.3 1.88v.01c0 .73-.1 1.36-.3 1.9-.2.52-.47.93-.82 1.22-.36.29-.79.43-1.3.43Zm0-.74c.33 0 .6-.11.83-.34.23-.23.41-.55.53-.97.13-.42.19-.92.19-1.5a5.2 5.2 0 0 0-.19-1.5c-.12-.42-.3-.74-.53-.96-.23-.23-.5-.35-.83-.35-.32 0-.6.12-.83.35-.23.22-.4.54-.53.96-.12.42-.18.92-.18 1.5s.06 1.08.18 1.5c.12.42.3.74.53.97.23.23.5.34.83.34Zm4.39.58v-.58l2.22-2.48.66-.78c.16-.2.27-.39.33-.55.06-.17.1-.36.1-.55v-.01c0-.24-.05-.45-.15-.64a1.1 1.1 0 0 0-.43-.45c-.18-.1-.4-.16-.66-.16s-.49.05-.68.17c-.2.1-.35.26-.46.46-.1.2-.16.43-.16.7h-.81c0-.4.09-.76.27-1.07.2-.31.45-.56.77-.73.33-.18.7-.27 1.13-.27.39 0 .73.08 1.04.25.3.16.55.39.73.67.18.29.27.61.27.98 0 .26-.04.51-.13.75s-.24.5-.46.8c-.22.28-.53.64-.93 1.06l-1.7 1.81.22-.39v.4l-.2-.15h3.31V32h-4.28Zm8.6.11c-.45 0-.85-.08-1.19-.24a1.87 1.87 0 0 1-1.15-1.61v-.05h.81v.04c.03.23.1.42.24.59.13.17.3.3.53.4.22.1.48.14.76.14.3 0 .55-.05.76-.15.22-.1.38-.25.5-.43.13-.19.19-.4.19-.64 0-.42-.14-.74-.4-.96a1.64 1.64 0 0 0-1.1-.34h-.82v-.72h.79c.26 0 .49-.05.69-.15a1.11 1.11 0 0 0 .64-1.02v-.01c0-.24-.05-.44-.15-.6a.94.94 0 0 0-.43-.39 1.57 1.57 0 0 0-.67-.13c-.26 0-.5.05-.7.14-.2.08-.35.21-.48.38-.12.16-.19.36-.21.59V27h-.82v-.05a1.93 1.93 0 0 1 1.1-1.61c.33-.16.7-.23 1.1-.23.43 0 .8.07 1.11.22.31.15.56.35.73.62.17.26.26.56.26.9v.01a1.51 1.51 0 0 1-.67 1.29c-.21.14-.45.24-.72.3v.02c.47.04.86.21 1.16.5.3.3.45.68.45 1.17 0 .38-.1.72-.3 1.02-.2.3-.47.53-.82.7-.35.17-.74.25-1.19.25Z" fill="#fff"/></g><defs><linearGradient id="bf5fcsel3" x1="48.14" y1="24.16" x2="-14.37" y2="30.49" gradientUnits="userSpaceOnUse"><stop stop-color="#9593FF"/><stop offset="1" stop-color="#FFA031" stop-opacity="0"/></linearGradient><linearGradient id="ff5fcsel3" x1="40.8" y1="25.37" x2="-21.25" y2="31.65" gradientUnits="userSpaceOnUse"><stop stop-color="#FFA031" stop-opacity="0"/><stop offset="1" stop-color="#9593FF"/></linearGradient><clipPath id="af5fcsel3"><rect width="42" height="42" rx="6"/></clipPath></defs></svg>