<svg width="320" height="460" viewBox="0 0 320 460" fill="none" xmlns="http://www.w3.org/2000/svg"><g filter="url(#ahroktb0e)"><path d="m30.3 499.58.51-478.52h259.71l-3.1 476.84-257.12 1.68Z" stroke="#D500F9" stroke-width="2.47"/></g><g filter="url(#bhroktb0e)"><path d="M28.55 492.33 24.41 38.57l264.84.89-1.84 441.7-258.86 11.17Z" stroke="#2962FF" stroke-width="2.47"/></g><g filter="url(#chroktb0e)"><path d="m31.12 499.57 2.55-476.04H282.1l1.01 472.67-251.99 3.37Z" stroke="#00E5FF" stroke-width="2.47"/></g><path d="M29.88 496.77V23.15l261.88 9.8-3.62 475.25-258.26-11.43Z" stroke="#D500F9" stroke-width="1.65"/><g filter="url(#dhroktb0e)"><path d="M29.88 496.77V23.15l261.88 9.8-3.62 475.25-258.26-11.43Z" stroke="#D500F9" stroke-width="1.65"/></g><path d="m29.75 491.88-5.16-454.6h266.74l1.95 451.84-263.53 2.76Z" stroke="#2962FF" stroke-width="1.65"/><g filter="url(#ehroktb0e)"><path d="m29.75 491.88-5.16-454.6h266.74l1.95 451.84-263.53 2.76Z" stroke="#2962FF" stroke-width="1.65"/></g><path d="M35.02 499.14 34 28.14l249.53-6.65v480.97l-248.51-3.32Z" stroke="#00E5FF" stroke-width="1.65"/><g filter="url(#fhroktb0e)"><path d="M35.02 499.14 34 28.97l249.53-8.3v481.79l-248.51-3.32Z" stroke="#00E5FF" stroke-width="1.65"/></g><defs><filter id="ahroktb0e" x="9.13" y="-.11" width="302.56" height="520.86" filterUnits="userSpaceOnUse" color-interpolation-filters="sRGB"><feGaussianBlur stdDeviation="9.96"/></filter><filter id="bhroktb0e" x="3.25" y="17.4" width="307.16" height="496.13" filterUnits="userSpaceOnUse" color-interpolation-filters="sRGB"><feGaussianBlur stdDeviation="9.96"/></filter><filter id="chroktb0e" x="9.96" y="2.36" width="294.33" height="518.38" filterUnits="userSpaceOnUse" color-interpolation-filters="sRGB"><feGaussianBlur stdDeviation="9.96"/></filter><filter id="dhroktb0e" x="27.61" y="20.86" width="266.43" height="489.62" filterUnits="userSpaceOnUse" color-interpolation-filters="sRGB"><feGaussianBlur stdDeviation=".72"/></filter><filter id="ehroktb0e" x="22.32" y="35" width="273.23" height="459.17" filterUnits="userSpaceOnUse" color-interpolation-filters="sRGB"><feGaussianBlur stdDeviation=".72"/></filter><filter id="fhroktb0e" x="31.73" y="18.39" width="254.07" height="486.35" filterUnits="userSpaceOnUse" color-interpolation-filters="sRGB"><feGaussianBlur stdDeviation=".72"/></filter></defs></svg>