<svg width="1720" height="1120" viewBox="0 0 1720 1120" fill="none" xmlns="http://www.w3.org/2000/svg"><g filter="url(#aqplxxfd2)"><path d="m107.67 1026.33 2.97-934.66h1516.64l-19.75 930.4-1499.86 4.26Z" stroke="#D500F9" stroke-width="5.33"/></g><g filter="url(#bqplxxfd2)"><path d="M116.9 1037.05 90.62 107.71l1519.7.31-9.4 905.43-1484.02 23.6Z" stroke="#2962FF" stroke-width="5.33"/></g><g filter="url(#cqplxxfd2)"><path d="m109.71 1024.32 14.8-923.65H1592.4l6.91 916.19-1489.6 7.46Z" stroke="#00E5FF" stroke-width="5.33"/></g><path d="M106.5 1018.11V73.54l1523.92 18.03-21.68 949.88-1502.24-23.34Z" stroke="#D500F9" stroke-width="7"/><g filter="url(#dqplxxfd2)"><path d="M106.5 1019.17V74.54l1522.92 18.03-20.69 948.88-1502.23-22.28Z" stroke="#D500F9" stroke-width="7"/></g><path d="M121.38 1030.21 92.51 106.62l1521.07 1 9.83 916.97-1502.03 5.62Z" stroke="#2962FF" stroke-width="7"/><g filter="url(#eqplxxfd2)"><path d="M121.33 1029.15 92.51 106.62l1521.02-.07 9.88 918.04-1502.08 4.56Z" stroke="#2962FF" stroke-width="7"/></g><path d="m129.42 1008.98-6.9-914.63L1595.5 80.53v936.95l-1466.08-8.5Z" stroke="#00E5FF" stroke-width="7"/><g filter="url(#fqplxxfd2)"><path d="m128.43 1011.11-5.9-917.76L1595.5 79.53v937.95l-1467.07-6.37Z" stroke="#00E5FF" stroke-width="7"/></g><defs><filter id="aqplxxfd2" x="31.67" y="15.67" width="1671.63" height="1086.66" filterUnits="userSpaceOnUse" color-interpolation-filters="sRGB"><feGaussianBlur stdDeviation="36.67"/></filter><filter id="bqplxxfd2" x="14.58" y="31.71" width="1671.75" height="1081.36" filterUnits="userSpaceOnUse" color-interpolation-filters="sRGB"><feGaussianBlur stdDeviation="36.67"/></filter><filter id="cqplxxfd2" x="33.69" y="24.67" width="1641.64" height="1075.66" filterUnits="userSpaceOnUse" color-interpolation-filters="sRGB"><feGaussianBlur stdDeviation="36.67"/></filter><filter id="dqplxxfd2" x="97.67" y="65.68" width="1540.64" height="984.63" filterUnits="userSpaceOnUse" color-interpolation-filters="sRGB"><feGaussianBlur stdDeviation="2.67"/></filter><filter id="eqplxxfd2" x="83.61" y="97.72" width="1548.65" height="940.27" filterUnits="userSpaceOnUse" color-interpolation-filters="sRGB"><feFlood flood-opacity="0"/><feBlend in="SourceGraphic"/><feGaussianBlur stdDeviation="2.67"/></filter><filter id="fqplxxfd2" x="113.67" y="70.68" width="1490.66" height="955.65" filterUnits="userSpaceOnUse" color-interpolation-filters="sRGB"><feGaussianBlur stdDeviation="2.67"/></filter></defs></svg>