<svg width="50" height="20" viewBox="0 0 50 20" xmlns="http://www.w3.org/2000/svg"><path fill-rule="evenodd" d="M8.39 0 .89 18h41l7.54-18H8.39Zm11 7.58c0-1.55-1.2-2.75-2.86-2.75H13.8V13h1.67v-2.67h1.05c1.65 0 2.86-1.2 2.86-2.75Zm-1.62 0c0 .67-.5 1.19-1.27 1.19h-1.02V6.4h1.02c.76 0 1.27.52 1.27 1.18Zm3.64-2.75V13h1.67V9.56h.41L26.3 13h2l-2.92-3.62c1.08-.35 1.68-1.04 1.68-2.13 0-1.36-.98-2.42-2.51-2.42H21.4Zm2.93 3.3h-1.26V6.37h1.26c.62 0 1.05.33 1.05.89 0 .55-.43.89-1.05.89Zm8.89 5a4.22 4.22 0 1 0 .01-8.42 4.22 4.22 0 0 0-.01 8.43Zm0-1.6a2.57 2.57 0 0 1-2.54-2.61 2.57 2.57 0 0 1 2.54-2.61 2.57 2.57 0 0 1 2.54 2.6 2.57 2.57 0 0 1-2.54 2.62Z" fill="currentColor"/></svg>