<svg width="419" height="168" viewBox="0 0 419 168" xmlns="http://www.w3.org/2000/svg"><path d="M41.77 61.24H5.4V3.73h11.74v46.33h24.63v11.18Zm24.95-41.4a21.14 21.14 0 1 1 0 42.29 21.14 21.14 0 1 1 0-42.28Zm0 10.37c-5.83 0-10.13 4.54-10.13 10.78 0 6.23 4.3 10.77 10.13 10.77 5.83 0 10.04-4.54 10.04-10.77 0-6.24-4.2-10.78-10.04-10.78Zm47.94-10.36a21.14 21.14 0 1 1 0 42.28 21.14 21.14 0 1 1 0-42.28Zm0 10.36c-5.84 0-10.13 4.54-10.13 10.78 0 6.23 4.3 10.77 10.13 10.77 5.83 0 10.04-4.54 10.04-10.77 0-6.24-4.21-10.78-10.05-10.78Zm40.4 31.03h-11.1V.49h11.1v35.15l13.12-14.9h13.36l-16.03 18.22 19.76 22.28h-13.69L155.06 42.6v18.63Zm65.99 0h-11.1V30.46h-8.18v-9.72h8.18v-5.27C209.95 5.6 216.84 0 225.42 0c3.08 0 5.27.32 7.05.9v9.8c-1.3-.5-2.75-.74-4.53-.74-4.78 0-6.89 1.95-6.89 6.89v3.89h11.42v9.72h-11.42v30.78ZM244.54 0a7.07 7.07 0 0 1 7.13 7.05 7.07 7.07 0 0 1-7.13 7.05 7.1 7.1 0 0 1-7.05-7.05A7.1 7.1 0 0 1 244.54 0Zm5.59 61.24h-11.1v-40.5h11.1v40.5Zm21.76 0h-11.1v-40.5h11.1v6.48a10.78 10.78 0 0 1 10.04-6.97c1.14 0 2.35.08 3.73.49V32c-1.7-.57-3.24-.9-5.02-.9-5.27 0-8.75 4.14-8.75 10.78v19.36Zm37.24-24.87c7.3 1.94 11.75 5.5 11.75 12.55 0 7.86-6.73 13.2-15.4 13.2-7.12 0-13.2-2.5-16.68-7.77l7.62-6.48c1.78 3 5.18 4.7 9.07 4.7 2.27 0 4.45-.9 4.45-2.92 0-1.7-.97-2.67-5.42-3.88l-3-.73c-7.45-1.95-11.34-6.73-11.18-12.96.16-7.45 6.64-12.23 15.23-12.23 6.16 0 10.93 2.34 14.01 6.8l-7.29 5.91c-1.86-2.35-4.21-3.56-6.88-3.56-1.95 0-4.05.89-4.05 2.75 0 1.22.56 2.6 3.97 3.49l3.8 1.13Zm45.79 14.66v9.8c-1.79.57-3.97.9-7.05.9-8.59 0-15.47-4.79-15.47-14.67v-16.6h-8.18v-9.72h8.18V9.48h11.1v11.26h11.42v9.72h-11.43v14.41c0 4.95 2.11 6.89 6.89 6.89 1.78 0 3.24-.24 4.54-.73ZM380 62h14.96L419 5h-14.02L380 62ZM16.01 150.24h11.83V103.9H43.3V92.73H.7v11.17H16v46.34Zm33.66 0h11.1v-19.77c0-7.77 3.89-11.5 8.99-11.5 4.62 0 7.13 3.56 7.13 9.4v21.87h11.1V126.5c0-10.53-5.84-17.66-15.64-17.66-5.26 0-9.48 2.27-11.58 5.51V89.5h-11.1v60.75Zm45.9-20.25c0 12.8 9.4 21.14 21.46 21.14 8.5 0 15.07-3.65 18.8-9.07l-8.27-6.16c-1.78 2.75-5.42 5.1-10.45 5.1-5.34 0-10.12-3-10.77-8.42h30.3c.16-1.7.16-2.84.16-3.8 0-13.13-9.32-19.94-19.93-19.94-12.31 0-21.3 9.16-21.3 21.15Zm20.98-12c4.13 0 8.18 2.28 9.15 7.06h-18.95c1.05-4.95 5.67-7.05 9.8-7.05Zm28.44 32.25h11.1v-19.77c0-7.77 3.88-11.5 8.99-11.5 4.61 0 7.13 3.56 7.13 9.4v21.87h11.1V126.5c0-10.53-5.84-17.66-15.64-17.66-5.27 0-9.48 2.27-11.58 5.51v-4.61h-11.1v40.5Zm66.92 0H223V89.49h-11.1v60.75Zm19.16-20.25c0 12.8 9.4 21.14 21.46 21.14 8.5 0 15.07-3.65 18.8-9.07l-8.27-6.16c-1.78 2.75-5.42 5.1-10.44 5.1-5.35 0-10.13-3-10.78-8.42h30.3c.16-1.7.16-2.84.16-3.8 0-13.13-9.32-19.94-19.93-19.94-12.31 0-21.3 9.16-21.3 21.15Zm20.98-12c4.13 0 8.18 2.28 9.15 7.06h-18.95c1.05-4.95 5.67-7.05 9.8-7.05Zm25.85 12c0 11.5 8.26 21.14 19.03 21.14 5.6 0 9.88-2.84 11.67-5.43v4.54h11.1v-40.5h-11.1v4.53c-1.79-2.59-6.08-5.42-11.67-5.42-10.77 0-19.03 9.63-19.03 21.14Zm31.59 0c0 6.31-4.13 11.01-10.2 11.01-6.08 0-10.21-4.7-10.21-11.01 0-6.32 4.13-11.02 10.2-11.02 6.08 0 10.2 4.7 10.2 11.02Zm21 37.17h11.09V145.7c1.86 2.6 6.16 5.43 11.74 5.43 10.78 0 19.04-9.64 19.04-21.14s-8.26-21.15-19.04-21.15c-5.58 0-9.88 2.84-11.74 5.43v-4.53h-11.1v57.42ZM361.1 130c0 6.31-4.13 11.01-10.2 11.01-6.08 0-10.21-4.7-10.21-11.01 0-6.32 4.13-11.02 10.2-11.02 6.08 0 10.21 4.7 10.21 11.02Zm40.2 21.23a9 9 0 1 0 0-18 9 9 0 0 0 0 18Z" fill="#fff"/></svg>