<svg width="314" height="127" viewBox="0 0 314 127" xmlns="http://www.w3.org/2000/svg"><path d="M31.2 47H3.83V3.69h8.84v34.89h18.55V47ZM50 15.83a15.92 15.92 0 1 1 0 31.84 15.92 15.92 0 1 1 0-31.84Zm0 7.8c-4.4 0-7.63 3.42-7.63 8.12 0 4.7 3.24 8.11 7.63 8.11s7.56-3.42 7.56-8.11c0-4.7-3.17-8.12-7.56-8.12Zm36.1-7.8a15.92 15.92 0 1 1 0 31.84 15.92 15.92 0 1 1 0-31.84Zm0 7.8c-4.4 0-7.63 3.42-7.63 8.12 0 4.7 3.24 8.11 7.63 8.11s7.56-3.42 7.56-8.11c0-4.7-3.17-8.12-7.56-8.12ZM116.52 47h-8.35V1.25h8.35v26.47l9.89-11.22h10.06L124.4 30.22 139.28 47h-10.31l-12.45-14.03V47Zm49.7 0h-8.35V23.82h-6.17V16.5h6.17v-3.97c0-7.44 5.18-11.65 11.65-11.65 2.31 0 3.96.24 5.3.67v7.38a9.55 9.55 0 0 0-3.41-.55c-3.6 0-5.19 1.47-5.19 5.19v2.93h8.6v7.32h-8.6V47ZM183.92.88a5.32 5.32 0 0 1 5.36 5.3 5.35 5.35 0 0 1-10.68 0c0-2.92 2.44-5.3 5.31-5.3Zm4.2 46.12h-8.36V16.5h8.36V47Zm16.39 0h-8.36V16.5h8.36v4.88a8.12 8.12 0 0 1 7.56-5.25c.86 0 1.77.06 2.81.37v8.48a11.49 11.49 0 0 0-3.78-.68c-3.97 0-6.59 3.12-6.59 8.12V47Zm28.05-18.73c5.49 1.46 8.84 4.15 8.84 9.45 0 5.92-5.06 9.95-11.59 9.95-5.37 0-9.94-1.9-12.56-5.86l5.73-4.88c1.34 2.26 3.9 3.54 6.83 3.54 1.71 0 3.36-.67 3.36-2.2 0-1.28-.73-2-4.09-2.92l-2.26-.55c-5.6-1.47-8.54-5.07-8.41-9.76.12-5.62 5-9.21 11.46-9.21 4.64 0 8.24 1.76 10.56 5.12l-5.5 4.45a6.48 6.48 0 0 0-5.18-2.68c-1.46 0-3.05.67-3.05 2.07 0 .92.43 1.95 2.99 2.63l2.87.85Zm34.48 11.04v7.38c-1.35.43-3 .67-5.31.67-6.47 0-11.65-3.6-11.65-11.04v-12.5h-6.16V16.5h6.16V8.02h8.35v8.48h8.6v7.32h-8.6v10.85c0 3.73 1.59 5.19 5.19 5.19 1.34 0 2.44-.18 3.42-.55ZM284.75 47h10.69l18.31-43h-10.69l-18.31 43ZM11.58 114h8.91V79.1h11.65V70.7H.06v8.42h11.52V114Zm25.35 0h8.36V99.1c0-5.85 2.93-8.66 6.77-8.66 3.48 0 5.37 2.69 5.37 7.08V114h8.36V96.12c0-7.93-4.4-13.3-11.78-13.3-3.96 0-7.13 1.71-8.72 4.15V68.25h-8.36V114ZM71.5 98.75c0 9.64 7.07 15.92 16.16 15.92 6.4 0 11.35-2.75 14.16-6.83l-6.23-4.64c-1.34 2.07-4.08 3.84-7.87 3.84-4.02 0-7.62-2.25-8.1-6.34h22.8c.13-1.28.13-2.14.13-2.87 0-9.88-7.02-15-15-15-9.28 0-16.05 6.89-16.05 15.92Zm15.8-9.03c3.1 0 6.16 1.7 6.9 5.3H79.91c.79-3.71 4.27-5.3 7.38-5.3ZM108.72 114h8.35V99.1c0-5.85 2.93-8.66 6.77-8.66 3.48 0 5.37 2.69 5.37 7.08V114h8.36V96.12c0-7.93-4.4-13.3-11.77-13.3-3.97 0-7.14 1.71-8.73 4.15V83.5h-8.35V114Zm50.4 0h8.35V68.25h-8.36V114Zm14.42-15.25c0 9.64 7.08 15.92 16.17 15.92 6.4 0 11.34-2.75 14.15-6.83l-6.22-4.64c-1.34 2.07-4.09 3.84-7.87 3.84-4.03 0-7.63-2.25-8.11-6.34h22.81c.12-1.28.12-2.14.12-2.87 0-9.88-7.01-15-15-15-9.28 0-16.05 6.89-16.05 15.92Zm15.8-9.03c3.11 0 6.16 1.7 6.9 5.3h-14.28c.8-3.71 4.27-5.3 7.38-5.3Zm19.47 9.03c0 8.66 6.22 15.92 14.33 15.92 4.21 0 7.45-2.14 8.79-4.09V114h8.35V83.5h-8.35v3.41c-1.34-1.95-4.58-4.08-8.79-4.08-8.11 0-14.33 7.26-14.33 15.92Zm23.79 0c0 4.75-3.11 8.3-7.69 8.3-4.57 0-7.68-3.55-7.68-8.3 0-4.76 3.1-8.3 7.68-8.3s7.69 3.54 7.69 8.3Zm15.8 28h8.37v-16.17c1.4 1.95 4.63 4.09 8.84 4.09 8.11 0 14.34-7.26 14.34-15.92s-6.23-15.92-14.34-15.92c-4.2 0-7.44 2.13-8.84 4.08V83.5h-8.36v43.25Zm23.07-28c0 4.75-3.11 8.3-7.69 8.3-4.57 0-7.68-3.55-7.68-8.3 0-4.76 3.1-8.3 7.68-8.3s7.69 3.54 7.69 8.3ZM300.5 114a6.5 6.5 0 1 0 0-13 6.5 6.5 0 0 0 0 13Z" fill="#fff"/></svg>