<svg width="236" height="96" viewBox="0 0 236 96" xmlns="http://www.w3.org/2000/svg"><path d="M24.29 35H3.63V2.34h6.67v26.31H24.3V35Zm14.17-23.5a12 12 0 1 1 0 24 12 12 0 1 1 0-24Zm0 5.88c-3.31 0-5.75 2.58-5.75 6.12s2.44 6.12 5.75 6.12 5.7-2.58 5.7-6.12-2.39-6.12-5.7-6.12Zm27.22-5.88a12 12 0 1 1 0 24 12 12 0 1 1 0-24Zm0 5.88c-3.31 0-5.75 2.58-5.75 6.12s2.44 6.12 5.75 6.12 5.7-2.58 5.7-6.12-2.39-6.12-5.7-6.12ZM88.63 35h-6.3V.5h6.3v19.97L96.08 12h7.59l-9.11 10.35L105.78 35h-7.77l-9.38-10.58V35Zm37.47 0h-6.3V17.52h-4.64V12h4.64V9.01c0-5.61 3.91-8.78 8.79-8.78 1.75 0 2.99.18 4 .5V6.3a7.2 7.2 0 0 0-2.58-.42c-2.71 0-3.9 1.1-3.9 3.91V12h6.48v5.52h-6.49V35ZM139.44.23c2.26 0 4.05 1.79 4.05 4a4.03 4.03 0 0 1-8.05 0c0-2.21 1.84-4 4-4ZM142.62 35h-6.3V12h6.3v23Zm12.35 0h-6.3V12h6.3v3.68a6.12 6.12 0 0 1 5.7-3.95c.65 0 1.34.04 2.13.27v6.4a8.66 8.66 0 0 0-2.86-.51c-2.99 0-4.97 2.35-4.97 6.12v11Zm21.16-14.12c4.14 1.1 6.67 3.13 6.67 7.13 0 4.46-3.82 7.5-8.74 7.5-4.05 0-7.5-1.43-9.48-4.42l4.32-3.68c1.02 1.7 2.95 2.67 5.16 2.67 1.28 0 2.53-.5 2.53-1.66 0-.96-.56-1.51-3.09-2.2l-1.7-.42c-4.23-1.1-6.44-3.82-6.35-7.36.1-4.23 3.78-6.94 8.65-6.94 3.5 0 6.21 1.33 7.96 3.86l-4.14 3.36a4.88 4.88 0 0 0-3.91-2.03c-1.1 0-2.3.51-2.3 1.57 0 .69.32 1.47 2.25 1.98l2.17.64Zm26 8.33v5.56c-1.02.32-2.26.5-4 .5-4.88 0-8.8-2.7-8.8-8.32v-9.43h-4.64V12h4.65V5.6h6.3V12h6.49v5.52h-6.49v8.19c0 2.8 1.2 3.91 3.91 3.91a7.2 7.2 0 0 0 2.58-.41ZM214 35h8.04L236 3h-8.04L214 35ZM9.66 86h6.72V59.69h8.78v-6.35H.96v6.35h8.7V86Zm19.12 0h6.3V74.78c0-4.42 2.2-6.54 5.1-6.54 2.63 0 4.05 2.03 4.05 5.34V86h6.3V72.52c0-5.98-3.3-10.03-8.87-10.03-3 0-5.39 1.3-6.58 3.13V51.5h-6.3V86Zm26.06-11.5c0 7.27 5.34 12 12.2 12 4.82 0 8.55-2.06 10.66-5.15l-4.69-3.5c-1.01 1.57-3.08 2.9-5.93 2.9-3.04 0-5.75-1.7-6.12-4.78h17.2c.1-.96.1-1.6.1-2.16 0-7.45-5.3-11.32-11.32-11.32-7 0-12.1 5.2-12.1 12.01Zm11.92-6.8c2.34 0 4.64 1.28 5.2 4H61.18c.6-2.81 3.22-4 5.57-4ZM82.9 86h6.3V74.78c0-4.42 2.2-6.54 5.1-6.54 2.63 0 4.05 2.03 4.05 5.34V86h6.3V72.52c0-5.98-3.3-10.03-8.87-10.03-3 0-5.38 1.3-6.58 3.13V63h-6.3v23Zm38 0h6.3V51.5h-6.3V86Zm10.88-11.5c0 7.27 5.34 12 12.2 12 4.82 0 8.55-2.06 10.66-5.15l-4.69-3.5c-1 1.57-3.08 2.9-5.93 2.9-3.04 0-5.75-1.7-6.12-4.78h17.2c.1-.96.1-1.6.1-2.16 0-7.45-5.3-11.32-11.32-11.32-7 0-12.1 5.2-12.1 12.01Zm11.92-6.8c2.34 0 4.64 1.28 5.2 4h-10.77c.6-2.81 3.22-4 5.57-4Zm14.68 6.8c0 6.53 4.69 12 10.8 12 3.18 0 5.62-1.6 6.63-3.08V86h6.3V63h-6.3v2.58c-1.01-1.48-3.45-3.09-6.62-3.09-6.12 0-10.81 5.48-10.81 12.01Zm17.94 0c0 3.59-2.35 6.26-5.8 6.26-3.45 0-5.8-2.67-5.8-6.26s2.35-6.26 5.8-6.26c3.45 0 5.8 2.67 5.8 6.26Zm11.92 21.11h6.3V83.42c1.06 1.48 3.5 3.09 6.67 3.09 6.12 0 10.81-5.48 10.81-12.01 0-6.53-4.7-12-10.8-12-3.18 0-5.62 1.6-6.68 3.08V63h-6.3v32.61Zm17.39-21.11c0 3.59-2.35 6.26-5.8 6.26-3.45 0-5.8-2.67-5.8-6.26s2.35-6.26 5.8-6.26c3.45 0 5.8 2.67 5.8 6.26ZM226 86a5 5 0 1 0 0-10 5 5 0 0 0 0 10Z" fill="#fff"/></svg>