<svg width="38" height="40" viewBox="0 0 38 40" fill="none" xmlns="http://www.w3.org/2000/svg">
  <g clip-path="url(#clip0_54_8318)">
    <path fill-rule="evenodd" clip-rule="evenodd"
      d="M37.8321 10.0134C36.3393 13.0225 35.5 16.4132 35.5 20C35.5 23.5868 36.3393 26.9775 37.8321 29.9866C34.3759 35.972 27.9084 40 20.5 40C9.4543 40 0.5 31.0457 0.5 20C0.5 8.9543 9.4543 0 20.5 0C27.9084 0 34.3759 4.02802 37.8321 10.0134Z"
      fill="#2C3753" />
    <g clip-path="url(#clip1_54_8318)">
      <path fill-rule="evenodd" clip-rule="evenodd"
        d="M30.4904 28.2346C30.4024 23.8552 29.7126 19.6403 28.5472 16.3665C27.3727 13.0685 25.9067 11.252 24.4203 11.252C23.4967 11.252 22.6291 11.9392 21.8404 13.2957C21.352 14.1371 20.8968 15.2418 20.501 16.5419C20.104 15.2418 19.6497 14.1371 19.1604 13.2957C18.3726 11.9392 17.5046 11.252 16.5809 11.252C15.0933 11.252 13.6281 13.0685 12.454 16.3665C11.2891 19.6403 10.5988 23.8552 10.5108 28.2342L10.5 28.7481H13.4848L13.4906 28.252C13.6065 19.1026 15.7375 13.2996 16.6054 13.2996C17.1902 13.2996 18.6845 17.3179 18.9112 27.2666L18.9229 27.7568H22.0784L22.0896 27.2666C22.3159 17.3179 23.8106 13.2991 24.3954 13.2991C25.2638 13.2991 27.3939 19.1021 27.5102 28.2516L27.5164 28.7481H30.5L30.4904 28.2346Z"
        fill="#F1BB00" />
      <path fill-rule="evenodd" clip-rule="evenodd"
        d="M30.2646 28.2397C30.1774 23.885 29.4913 19.6985 28.3347 16.4494C27.2134 13.2958 25.7864 11.4873 24.4204 11.4873C22.9253 11.4873 21.5174 13.6118 20.5012 17.3566C19.4845 13.6122 18.0762 11.4877 16.5802 11.4877C15.2151 11.4877 13.7877 13.2962 12.6655 16.4489C11.5093 19.6981 10.8241 23.885 10.7368 28.2397L10.7314 28.5111H13.2619L13.2648 28.2487C13.3824 18.9765 15.5245 13.0626 16.6056 13.0626C17.5317 13.0626 18.9267 17.9962 19.1377 27.2599L19.1443 27.5203H21.8576L21.8634 27.2599C22.0743 17.9966 23.4702 13.0626 24.3955 13.0626C25.477 13.0626 27.6191 18.9765 27.7362 28.2487L27.7396 28.5111H30.27L30.2646 28.2397Z"
        fill="#F1BB00" />
      <path fill-rule="evenodd" clip-rule="evenodd"
        d="M16.5528 12.2773V12.8006C15.0772 12.9586 13.1182 19.7079 13.0106 28.2457L12.0068 27.195V27.1686C12.3258 18.7973 14.5568 12.344 16.5528 12.2773Z"
        fill="#F1BB00" />
      <path fill-rule="evenodd" clip-rule="evenodd"
        d="M16.5009 11.7588H16.6725C18.1522 11.8607 19.5605 14.4252 20.4983 18.387V26.0431C20.1328 18.1352 18.5065 12.2765 16.5836 12.2765C16.187 12.2765 15.7804 12.5314 15.3809 13.0045V12.2663C15.7546 11.955 16.1309 11.7809 16.5009 11.7588ZM25.0916 12.511V13.2445C24.8532 12.9527 24.6181 12.7972 24.3951 12.7972C22.9706 12.7972 21.794 19.0917 21.6084 27.2553L20.5016 26.0962V26.078C20.8629 18.1526 22.4914 12.2765 24.4171 12.2765C24.6397 12.2765 24.8657 12.3572 25.0916 12.511Z"
        fill="#F1BB00" />
      <path fill-rule="evenodd" clip-rule="evenodd"
        d="M30.0067 28.123V28.2432L29.0004 27.1907L28.9962 27.195C28.703 19.4246 26.7623 13.3009 24.8896 12.3933V11.8369C27.2876 12.6503 29.8119 19.5249 30.0062 28.123H30.0067Z"
        fill="#F1BB00" />
    </g>
  </g>
  <defs>
    <clipPath id="clip0_54_8318">
      <rect width="37.5" height="40" fill="white" transform="translate(0.5)" />
    </clipPath>
    <clipPath id="clip1_54_8318">
      <rect width="20" height="17.5" fill="white" transform="translate(10.5 11.25)" />
    </clipPath>
  </defs>
</svg>