<svg width="38" height="40" viewBox="0 0 38 40" fill="none" xmlns="http://www.w3.org/2000/svg">
  <g clip-path="url(#clip0_0_3)">
    <mask id="mask0_0_3" style="mask-type:luminance" maskUnits="userSpaceOnUse" x="0" y="0" width="38" height="40">
      <path d="M38 0H0.5V40H38V0Z" fill="white" />
    </mask>
    <g mask="url(#mask0_0_3)">
      <path fill-rule="evenodd" clip-rule="evenodd"
        d="M37.8321 10.0134C36.3393 13.0225 35.5 16.4132 35.5 20C35.5 23.5868 36.3393 26.9775 37.8321 29.9866C34.3759 35.972 27.9084 40 20.5 40C9.4543 40 0.5 31.0457 0.5 20C0.5 8.9543 9.4543 0 20.5 0C27.9084 0 34.3759 4.02802 37.8321 10.0134Z"
        fill="#E82127" />
      <mask id="mask1_0_3" style="mask-type:luminance" maskUnits="userSpaceOnUse" x="10" y="11" width="21" height="18">
        <path d="M30.5 11.25H10.5V28.75H30.5V11.25Z" fill="white" />
      </mask>
      <g mask="url(#mask1_0_3)">
        <path
          d="M20.5437 31.2497L23.3537 15.4463C26.0321 15.4463 26.8769 15.74 26.9989 16.9388C26.9989 16.9388 28.7956 16.2689 29.7018 14.9082C26.1655 13.2696 22.6124 13.1957 22.6124 13.1957L20.5391 15.721L20.5437 15.7207L18.4704 13.1953C18.4704 13.1953 14.9172 13.2693 11.3813 14.9079C12.2868 16.2686 14.0842 16.9385 14.0842 16.9385C14.2069 15.7396 15.0507 15.4459 17.7111 15.444L20.5437 31.2497Z"
          fill="white" />
        <path
          d="M20.5429 12.4666C23.4014 12.4448 26.6734 12.9088 30.0229 14.3687C30.4706 13.5629 30.5857 13.2068 30.5857 13.2068C26.9242 11.7582 23.4952 11.2624 20.5425 11.25C17.5898 11.2624 14.161 11.7583 10.5 13.2068C10.5 13.2068 10.6633 13.6455 11.0624 14.3687C14.4113 12.9088 17.6842 12.4448 20.5429 12.4666Z"
          fill="white" />
      </g>
    </g>
  </g>
  <defs>
    <clipPath id="clip0_0_3">
      <rect width="38" height="40" fill="white" />
    </clipPath>
  </defs>
</svg>