<svg width="38" height="40" viewBox="0 0 38 40" fill="none" xmlns="http://www.w3.org/2000/svg">
  <g clip-path="url(#clip0_54_8333)">
    <path fill-rule="evenodd" clip-rule="evenodd"
      d="M37.8321 10.0134C36.3393 13.0225 35.5 16.4132 35.5 20C35.5 23.5868 36.3393 26.9775 37.8321 29.9866C34.3759 35.972 27.9084 40 20.5 40C9.4543 40 0.5 31.0457 0.5 20C0.5 8.9543 9.4543 0 20.5 0C27.9084 0 34.3759 4.02802 37.8321 10.0134Z"
      fill="#2C3753" />
    <mask id="mask0_54_8333" style="mask-type:luminance" maskUnits="userSpaceOnUse" x="10" y="10" width="21"
      height="21">
      <path
        d="M30.2683 18.3725H20.733V22.3261H26.2216C25.71 24.8379 23.5703 26.2798 20.733 26.2798C17.384 26.2798 14.6862 23.582 14.6862 20.233C14.6862 16.884 17.384 14.1862 20.733 14.1862C22.1749 14.1862 23.4773 14.6979 24.5006 15.5351L27.4775 12.5583C25.6635 10.9768 23.3378 10 20.733 10C15.0583 10 10.5 14.5583 10.5 20.233C10.5 25.9077 15.0583 30.466 20.733 30.466C25.8495 30.466 30.5009 26.7449 30.5009 20.233C30.5009 19.6283 30.4079 18.9771 30.2683 18.3725Z"
        fill="white" />
    </mask>
    <g mask="url(#mask0_54_8333)">
      <path d="M9.56982 26.2791V14.1855L17.4772 20.2323L9.56982 26.2791Z" fill="#FBBC05" />
    </g>
    <mask id="mask1_54_8333" style="mask-type:luminance" maskUnits="userSpaceOnUse" x="10" y="10" width="21"
      height="21">
      <path
        d="M30.2683 18.3725H20.733V22.3261H26.2216C25.71 24.8379 23.5703 26.2798 20.733 26.2798C17.384 26.2798 14.6862 23.582 14.6862 20.233C14.6862 16.884 17.384 14.1862 20.733 14.1862C22.1749 14.1862 23.4773 14.6979 24.5006 15.5351L27.4775 12.5583C25.6635 10.9768 23.3378 10 20.733 10C15.0583 10 10.5 14.5583 10.5 20.233C10.5 25.9077 15.0583 30.466 20.733 30.466C25.8495 30.466 30.5009 26.7449 30.5009 20.233C30.5009 19.6283 30.4079 18.9771 30.2683 18.3725Z"
        fill="white" />
    </mask>
    <g mask="url(#mask1_54_8333)">
      <path d="M9.56982 14.1868L17.4772 20.2336L20.7331 17.3963L31.8964 15.5822V9.07031H9.56982V14.1868Z"
        fill="#EA4335" />
    </g>
    <mask id="mask2_54_8333" style="mask-type:luminance" maskUnits="userSpaceOnUse" x="10" y="10" width="21"
      height="21">
      <path
        d="M30.2683 18.3725H20.733V22.3261H26.2216C25.71 24.8379 23.5703 26.2798 20.733 26.2798C17.384 26.2798 14.6862 23.582 14.6862 20.233C14.6862 16.884 17.384 14.1862 20.733 14.1862C22.1749 14.1862 23.4773 14.6979 24.5006 15.5351L27.4775 12.5583C25.6635 10.9768 23.3378 10 20.733 10C15.0583 10 10.5 14.5583 10.5 20.233C10.5 25.9077 15.0583 30.466 20.733 30.466C25.8495 30.466 30.5009 26.7449 30.5009 20.233C30.5009 19.6283 30.4079 18.9771 30.2683 18.3725Z"
        fill="white" />
    </mask>
    <g mask="url(#mask2_54_8333)">
      <path d="M9.56982 26.2804L23.5239 15.5822L27.1985 16.0474L31.8964 9.07031V31.3969H9.56982V26.2804Z"
        fill="#34A853" />
    </g>
    <mask id="mask3_54_8333" style="mask-type:luminance" maskUnits="userSpaceOnUse" x="10" y="10" width="21"
      height="21">
      <path
        d="M30.2683 18.3725H20.733V22.3261H26.2216C25.71 24.8379 23.5703 26.2798 20.733 26.2798C17.384 26.2798 14.6862 23.582 14.6862 20.233C14.6862 16.884 17.384 14.1862 20.733 14.1862C22.1749 14.1862 23.4773 14.6979 24.5006 15.5351L27.4775 12.5583C25.6635 10.9768 23.3378 10 20.733 10C15.0583 10 10.5 14.5583 10.5 20.233C10.5 25.9077 15.0583 30.466 20.733 30.466C25.8495 30.466 30.5009 26.7449 30.5009 20.233C30.5009 19.6283 30.4079 18.9771 30.2683 18.3725Z"
        fill="white" />
    </mask>
    <g mask="url(#mask3_54_8333)">
      <path d="M31.8965 31.3956L17.4772 20.2323L15.6167 18.8369L31.8965 14.1855V31.3956Z" fill="#4285F4" />
    </g>
  </g>
  <defs>
    <clipPath id="clip0_54_8333">
      <rect width="37.5" height="40" fill="white" transform="translate(0.5)" />
    </clipPath>
  </defs>
</svg>