<svg width="38" height="40" viewBox="0 0 38 40" fill="none" xmlns="http://www.w3.org/2000/svg">
  <g clip-path="url(#clip0_54_8354)">
    <path fill-rule="evenodd" clip-rule="evenodd"
      d="M37.3321 10.0134C35.8393 13.0225 35 16.4132 35 20C35 23.5868 35.8393 26.9775 37.3321 29.9866C33.8759 35.972 27.4084 40 20 40C8.9543 40 0 31.0457 0 20C0 8.9543 8.9543 0 20 0C27.4084 0 33.8759 4.02802 37.3321 10.0134Z"
      fill="black" />
    <g clip-path="url(#clip1_54_8354)">
      <path
        d="M24.7338 19.2173C24.7263 17.7882 25.3475 16.7095 26.6048 15.9151C25.9013 14.8676 24.8386 14.2913 23.4354 14.1783C22.107 14.0693 20.6551 14.9844 20.1238 14.9844C19.5625 14.9844 18.2753 14.2173 17.2649 14.2173C15.177 14.2523 12.958 15.9502 12.958 19.4042C12.958 20.4245 13.1376 21.4785 13.4968 22.5662C13.9758 23.9953 15.7046 27.5 17.5082 27.4416C18.4511 27.4182 19.1172 26.7445 20.3445 26.7445C21.5345 26.7445 22.1519 27.4416 23.2034 27.4416C25.0219 27.4143 26.586 24.229 27.0426 22.7959C24.6028 21.6005 24.7338 19.2913 24.7338 19.2173ZM22.6159 12.8232C23.6374 11.5615 23.5439 10.4128 23.5139 10C22.6121 10.0545 21.5681 10.6386 20.9732 11.359C20.3183 12.1301 19.9329 13.0841 20.0153 14.1589C20.9919 14.2368 21.8825 13.715 22.6159 12.8232Z"
        fill="#E9E9E9" />
    </g>
  </g>
  <defs>
    <clipPath id="clip0_54_8354">
      <rect width="37.5" height="40" fill="white" />
    </clipPath>
    <clipPath id="clip1_54_8354">
      <rect width="15" height="17.5" fill="white" transform="translate(12.5 10)" />
    </clipPath>
  </defs>
</svg>