<svg width="38" height="40" viewBox="0 0 38 40" fill="none" xmlns="http://www.w3.org/2000/svg">
  <g clip-path="url(#clip0_54_8313)">
    <path fill-rule="evenodd" clip-rule="evenodd"
      d="M37.3321 10.0134C35.8393 13.0225 35 16.4132 35 20C35 23.5868 35.8393 26.9775 37.3321 29.9866C33.8759 35.972 27.4084 40 20 40C8.9543 40 0 31.0457 0 20C0 8.9543 8.9543 0 20 0C27.4084 0 33.8759 4.02802 37.3321 10.0134Z"
      fill="#039BE5" />
    <path
      d="M19.5 8.81348C16.6655 8.81348 13.9471 9.93948 11.9428 11.9438C9.9385 13.9481 8.8125 16.6665 8.8125 19.501C8.8125 22.3355 9.9385 25.0539 11.9428 27.0582C13.9471 29.0625 16.6655 30.1885 19.5 30.1885C22.3345 30.1885 25.0529 29.0625 27.0572 27.0582C29.0615 25.0539 30.1875 22.3355 30.1875 19.501C30.1875 16.6665 29.0615 13.9481 27.0572 11.9438C25.0529 9.93948 22.3345 8.81348 19.5 8.81348Z"
      fill="#039BE5" />
    <path
      d="M20.7428 21.1322H23.5344L23.9728 18.3225H20.7422V16.7869C20.7422 15.6197 21.1272 14.5847 22.2292 14.5847H24V12.1328C23.6889 12.0911 23.0308 12 21.7875 12C19.1911 12 17.669 13.3584 17.669 16.4533V18.3225H15V21.1322H17.669V28.8548C18.1976 28.9335 18.733 28.9869 19.2826 28.9869C19.7793 28.9869 20.2642 28.9419 20.7428 28.8778V21.1322Z"
      fill="white" />
  </g>
  <defs>
    <clipPath id="clip0_54_8313">
      <rect width="37.5" height="40" fill="white" />
    </clipPath>
  </defs>
</svg>