<svg fill="none" height="48" viewBox="0 0 48 48" width="48" xmlns="http://www.w3.org/2000/svg" xmlns:xlink="http://www.w3.org/1999/xlink"><linearGradient id="a" gradientUnits="userSpaceOnUse" x1="0" x2="48" y1="23.9995" y2="23.9995"><stop offset="0" stop-color="#00c9ff"/><stop offset="1" stop-color="#92fe9d"/></linearGradient><clipPath id="b"><path d="m0-.000488h48v48h-48z"/></clipPath><g clip-path="url(#b)"><path d="m48 23.9995c0 13.255-10.745 24-24 24s-24-10.745-24-24 10.745-23.99998828 24-23.99998828 24 10.74498828 24 23.99998828z" fill="url(#a)"/><path d="m18.5085 32.9995c-.2736 0-.5358-.1053-.7272-.2916l-5.4916-5.3538c-.3925-.3827-.3853-.9965.0162-1.3709s1.0453-.3676 1.438.0154l4.7643 4.6446 15.7477-15.3521c.3927-.3828 1.0365-.3896 1.438-.0152.4018.3742.4089.9882.0162 1.371l-16.4746 16.061c-.1913.1863-.4534.2916-.727.2916z" fill="#fff"/></g></svg>