<svg fill="none" height="44" viewBox="0 0 44 44" width="44" xmlns="http://www.w3.org/2000/svg" xmlns:xlink="http://www.w3.org/1999/xlink"><linearGradient id="a" gradientUnits="userSpaceOnUse" x1="0" x2="43.3352" y1="21.6624" y2="21.6624"><stop offset="0" stop-color="#4776e6"/><stop offset="1" stop-color="#8e54e9"/></linearGradient><path d="m25.9936.00000198c3.9649-.00189251 7.8107 1.35560802 10.8958 3.84610802 3.0852 2.49049 5.2232 5.96342 6.0576 9.83959.8344 3.8761.3147 7.9212-1.4725 11.4605s-4.7337 6.359-8.3483 7.9886c-1.1553 2.5543-2.913 4.7903-5.1223 6.5161-2.2092 1.7259-4.8041 2.8901-7.5621 3.3928-2.758.5028-5.5968.3291-8.2729-.5062-2.67616-.8353-5.10974-2.3072-7.09208-4.2896-1.98234-1.9823-3.45427-4.4159-4.289563-7.092-.8352888-2.6761-1.009006-5.5149-.506253-8.2729.502752-2.758 1.666966-5.3529 3.392806-7.5622s3.96179-3.9669 6.51609-5.1223c1.374-3.04007 3.5958-5.61924 6.3989-7.42818 2.8032-1.808939 6.0686-2.77083364 9.4048-2.77031802zm-6.5 15.16669802h-4.3334v2.1666c-1.408-.0034-2.7621.5416-3.7752 1.5196s-1.60548 2.312-1.65168 3.7193c-.04621 1.4074.45738 2.7774 1.40418 3.8197.9467 1.0423 2.2621 1.675 3.6674 1.7639l.3553.0109h4.3334l.195.0173c.2498.0452.4757.1767.6384.3716.1628.1948.2519.4406.2519.6944s-.0891.4996-.2519.6945c-.1627.1948-.3886.3263-.6384.3715l-.195.0173h-8.6667v4.3334h4.3333v2.1666h4.3334v-2.1666c1.4081.0034 2.7621-.5416 3.7752-1.5196s1.6055-2.312 1.6517-3.7193c.0462-1.4074-.4574-2.7774-1.4042-3.8197-.9467-1.0423-2.2621-1.675-3.6674-1.7639l-.3553-.0109h-4.3334l-.195-.0173c-.2497-.0452-.4757-.1767-.6384-.3715-.1627-.1949-.2519-.4407-.2519-.6945s.0892-.4996.2519-.6944c.1627-.1949.3887-.3264.6384-.3716l.195-.0173h8.6667v-4.3334h-4.3333zm6.5-10.83336c-1.8359-.00215-3.6513.38553-5.3261 1.13741s-3.1709 1.85081-4.3893 3.22409c2.4489-.14867 4.9015.22424 7.1956 1.09405 2.294.86981 4.3773 2.21671 6.112 3.95161 1.7347 1.735 3.0814 3.8184 3.9509 6.1125.8695 2.2942 1.2422 4.7468 1.0932 7.1957 1.97-1.7515 3.3609-4.0605 3.9884-6.6207s.4619-5.2507-.4748-7.7146c-.9368-2.4639-2.6005-4.58485-4.7704-6.08149s-4.7435-2.29827-7.3795-2.29857z" fill="url(#a)"/></svg>