<svg width="49" height="49" viewBox="0 0 49 49" fill="none" xmlns="http://www.w3.org/2000/svg">
<circle cx="24.5" cy="24.5" r="24.5" fill="white"/>
<circle cx="24.5" cy="24.5" r="24.0463" stroke="#4F4E4E" stroke-opacity="0.2" stroke-width="0.907407"/>
<path d="M19.4902 32H29.6562V29.627H23.4453V29.4023L26.0527 26.9707C28.6211 24.5977 29.4512 23.2695 29.4512 21.668V21.6387C29.4512 19.207 27.4199 17.5469 24.5195 17.5469C21.4336 17.5469 19.3242 19.4023 19.3242 22.1074L19.334 22.1465H22.0586V22.0977C22.0586 20.7598 23.0059 19.8418 24.3828 19.8418C25.7305 19.8418 26.5508 20.6816 26.5508 21.8828V21.9121C26.5508 22.8984 26.0137 23.6113 24.0312 25.5352L19.4902 30.0176V32Z" fill="black"/>
</svg>
